inDegrees=no
num_controls=7
num_derivatives=13
num_iterations=148
num_multipliers=7
num_parameters=0
num_slacks=7
num_states=26
objective=5.605102
objective_accelerations=0.412687
objective_balance=0.054396
objective_effort=0.385505
objective_height=4.680957
objective_ligament=0.071557
solver_duration=1545.943502
status=Solve_Succeeded
success=true
DataType=double
version=3
OpenSimVersion=4.4-2022-07-23-0e9fedc
endheader
time	/jointset/ground_pelvis/pelvis_tilt/value	/jointset/ground_pelvis/pelvis_tx/value	/jointset/ground_pelvis/pelvis_ty/value	/jointset/hip_l/hip_flexion_l/value	/jointset/hip_l/hip_adduction_l/value	/jointset/hip_l/hip_rotation_l/value	/jointset/back/lumbar_extension/value	/jointset/patellofemoral_l/patellar_flexion_l/value	/jointset/knee_l/knee_flexion_l/value	/jointset/knee_l/knee_adduction_l/value	/jointset/knee_l/knee_rotation_l/value	/jointset/ankle_l/ankle_angle_l/value	/jointset/subtalar_l/subtalar_angle_l/value	/jointset/ground_pelvis/pelvis_tilt/speed	/jointset/ground_pelvis/pelvis_tx/speed	/jointset/ground_pelvis/pelvis_ty/speed	/jointset/hip_l/hip_flexion_l/speed	/jointset/hip_l/hip_adduction_l/speed	/jointset/hip_l/hip_rotation_l/speed	/jointset/back/lumbar_extension/speed	/jointset/patellofemoral_l/patellar_flexion_l/speed	/jointset/knee_l/knee_flexion_l/speed	/jointset/knee_l/knee_adduction_l/speed	/jointset/knee_l/knee_rotation_l/speed	/jointset/ankle_l/ankle_angle_l/speed	/jointset/subtalar_l/subtalar_angle_l/speed	/forceset/tau_hip_flexion_l	/forceset/tau_hip_adduction_l	/forceset/tau_hip_rotation_l	/forceset/tau_knee_flexion_l	/forceset/tau_ankle_angle_l	/forceset/tau_subtalar_angle_l	/forceset/tau_lumbar_extension	lambda_cid13_p0	lambda_cid13_p1	lambda_cid13_p2	lambda_cid13_p3	lambda_cid13_p4	lambda_cid13_p5	lambda_cid14_p0	/jointset/ground_pelvis/pelvis_tilt/accel	/jointset/ground_pelvis/pelvis_tx/accel	/jointset/ground_pelvis/pelvis_ty/accel	/jointset/hip_l/hip_flexion_l/accel	/jointset/hip_l/hip_adduction_l/accel	/jointset/hip_l/hip_rotation_l/accel	/jointset/back/lumbar_extension/accel	/jointset/patellofemoral_l/patellar_flexion_l/accel	/jointset/knee_l/knee_flexion_l/accel	/jointset/knee_l/knee_adduction_l/accel	/jointset/knee_l/knee_rotation_l/accel	/jointset/ankle_l/ankle_angle_l/accel	/jointset/subtalar_l/subtalar_angle_l/accel	gamma_cid13_p0	gamma_cid13_p1	gamma_cid13_p2	gamma_cid13_p3	gamma_cid13_p4	gamma_cid13_p5	gamma_cid14_p0
0	-0.03682256100517756	0.05667751425846253	0.9203415967347941	0.3085811930696054	-0.2956403922503996	-0.3016064135068003	-0.3879500408040475	0.249927658227119	0.249927658227084	-0.1745328388560748	-0.174532105082508	-0.0008036543073733089	0.0004376795486493913	0	0	0	0	0	0	0	0	0	0	0	0	0	0.06915908904235757	-0.05982497792608653	-0.02451049754039922	-0.2814272618782181	0.273618276623006	-0.02008244257644015	0.01777402203356706	43.98317377706205	-0.9377163551024323	1.932138209747231	-25.10591368406864	-638.4575181376257	-75.83128324806391	-23.19696214307668	0.229095511400589	-1.01221994765935	-0.6367319831585438	6.078458669875242	-0.7981793423322149	3.029144439589253	-6.464602637170872	8.569673443751562	8.569673443750407	1.111275301457831	-0.04542406972252232	2.78147511854938	0.09770811176142036	-1.563504201651753e-08	1.228295053749432e-07	7.409704892372886e-08	6.869957071049227e-09	5.17232214495138e-08	-2.974544926361406e-08	4.748685936318378e-10
0.01	-0.03680875243033411	0.05662758042236467	0.9203105269370785	0.3088765847831263	-0.2956801941115889	-0.3014542341046133	-0.3882715967120708	0.2503474999580743	0.2503474999581937	-0.1744801721093753	-0.1745310173554134	-0.0006674902403653551	0.0004416600149595533	0.002768299633995991	-0.009932012908131138	-0.006189088118052338	0.05877645738648154	-0.00790956535084222	0.03027701822589211	-0.06389662353693033	0.0835786948711231	0.08357869487111423	0.01050029728739024	0.0002080037686704416	0.02712006821483885	0.0008111547213129173	0.0629671531451553	-0.07358185735207157	-0.02334492081540895	-0.2742068808849177	0.2586308430699744	-0.00184149253280749	0.02301119910253445	39.74393931769323	-8.040941458670483	2.977135822726961	-23.57321211066373	-640.6981878850199	-90.34883916328559	-23.2017692260644	0.3016782212425396	-0.9754774407177033	-0.6062561678161172	5.731950541032659	-0.7797565884380093	3.003146838046719	-6.290008502089309	8.193519715587191	8.193519715586881	1.01447905189124	0.05248938898339561	2.660362441175559	0.07505044850205629	-3.661234159559268e-08	1.251769171614323e-07	1.309979903653163e-07	2.649251794451185e-08	-2.934764354798492e-08	-7.233775315594681e-08	-4.986358947548832e-09
0.02	-0.03676706465276997	0.05647996936152148	0.9202183144698435	0.3097506833240454	-0.2957975739176669	-0.3010040512553339	-0.3892196821135019	0.2515914390791504	0.2515914390791806	-0.1743234879674796	-0.1745281342328214	-0.0002635075375609557	0.0004541982877202523	0.00557584054178803	-0.01953544494906924	-0.012228533903861	0.1157413654929687	-0.01551558898073626	0.05960068941004638	-0.1253058986793233	0.1648194780140204	0.1648194780140081	0.02080347895518824	0.0003590790901557061	0.05356372715864317	0.001711561290033467	0.05677521724714994	-0.08733873677827193	-0.02217934409105577	-0.2669864998921135	0.2436434095166702	0.01639945751051822	0.02824837617115284	35.57045861497795	-15.15702523600526	4.025721593421475	-22.21862309703943	-642.0065976452144	-104.7854644439851	-23.21591232168757	0.2369437661593938	-0.9465037742203969	-0.6068035167098438	5.716148813876242	-0.7374709981430797	2.838475031240352	-5.967132958263553	8.102091098106593	8.102091098106525	1.071852177538563	-0.05680975916111262	2.64619326434275	0.1155584812425465	-5.758964117466784e-08	1.275243289479213e-07	1.878989318069038e-07	4.611507881797448e-08	-1.104185085454837e-07	-1.149300570482795e-07	-1.04475864887295e-08
0.03	-0.03669721831409362	0.05623823713232724	0.9200663199317894	0.3111853168330923	-0.2959894479704779	-0.3002657882448206	-0.3907690828786951	0.2536363333132455	0.2536363333132464	-0.174064802437103	-0.1745244046267033	0.0004019195210073285	0.0004763670060122278	0.008403462204212236	-0.02872904757003347	-0.01815615797516586	0.1708527850326299	-0.02281031264595773	0.08790139709106486	-0.1841419377577558	0.2437776105566946	0.2437776105566779	0.03087534689912513	0.0003863548016598175	0.07944385040380811	0.002746434918575583	0.05088633391538531	-0.0779316008970278	-0.02142544819538707	-0.2614752690977259	0.2388972760438542	0.01153983896540521	0.03345797983221888	33.78688210923019	-12.84578584189058	3.784702534782688	-21.49159107553582	-643.6395796466658	-99.18789145627146	-23.23883382224201	0.3071705789050795	-0.8934862049097144	-0.5836319038557656	5.358746967370959	-0.7181851566204498	2.803269666783982	-5.776991892910305	7.735412707563416	7.735412707562866	0.9661548858543544	0.03245070125390438	2.547246400331144	0.1010481395646907	-7.779390579252157e-08	9.313171832018361e-08	2.471157366506664e-07	6.073505592340875e-08	-1.845116964589356e-07	-1.667111162403597e-07	-2.010325051910045e-08
0.04	-0.03659879591625995	0.05590702933714944	0.9198554711427177	0.3131610862262068	-0.2962528116811193	-0.2992490379514366	-0.3928938745367289	0.2564593565477554	0.2564593565477502	-0.1737071380706457	-0.1745204113701082	0.001323812721173437	0.0005096037277707394	0.01129105237149955	-0.03743055814578246	-0.02399938410741739	0.2239685423067257	-0.02981352054749783	0.1152981459821102	-0.2403840772473293	0.3204452781079857	0.3204452781079636	0.04059924616435687	0.0004118091110609719	0.1048569554780818	0.003925161983292513	0.0449974505834451	-0.06852446501587982	-0.02067155229928957	-0.2559640383035749	0.2341511425709296	0.006680220420150718	0.03866758349326603	32.06538513034265	-10.5419579010737	3.54091563563833	-20.93633898005477	-644.4032430733638	-93.50534096415161	-23.26981298352617	0.2489374671316977	-0.8480853651770415	-0.5899239288991894	5.317016360763114	-0.6791678454069977	2.657683273245267	-5.448353040491903	7.643998099829973	7.643998099829725	1.002258441797193	-0.05717403958222884	2.552789630164783	0.1443291684774158	-9.798223154519551e-08	5.798158145710106e-08	3.063802912552987e-07	7.525188697177028e-08	-2.584610147417888e-07	-2.186816343045996e-07	-2.984539777605265e-08
0.05	-0.03647136975997016	0.05549104275155362	0.9195864379411833	0.3156587203155765	-0.296584738979534	-0.297963297985391	-0.3955685207163472	0.2600379448463623	0.2600379448463408	-0.1732540046591387	-0.1745167011386345	0.002497262348617304	0.0005552740829628785	0.01420342231508214	-0.04570686414712053	-0.02980652555216139	0.2752654967289512	-0.03651750804575901	0.141704187528702	-0.2941713173795616	0.3948994941652166	0.3948994941652247	0.04996471198131806	0.0003354318071595075	0.129726372595405	0.005228325951100803	0.03892489825110491	-0.0669193787662505	-0.0197163222203202	-0.2502067446413086	0.2254727302616809	0.009681613575067199	0.04382175056378903	29.36369768841019	-11.42175911248054	3.737540228846102	-19.75703233959159	-645.2066321440996	-94.60518984666619	-23.3079511396629	0.3137686970823017	-0.8084038251649942	-0.5760519449611153	4.992107650321453	-0.6579034522132524	2.610172348905131	-5.287833305696731	7.290206289439812	7.290206289444483	0.894325223674588	0.01796015179142884	2.438024554675649	0.1261786840616979	-1.108649726628415e-07	2.139841196865688e-08	3.472383141019583e-07	8.330651913166253e-08	-3.101963634649462e-07	-2.574582237802317e-07	-3.737708200263786e-08
